<svg xmlns="http://www.w3.org/2000/svg" viewBox="0 0 90 90" height="90" width="90">
  <path fill="#e4be81" d="M63.92 50.29c.04-.1.08-.14.11-.24.05-.16.07-.33.1-.5l.13-.72.13-.76c.05-.24.12-.47.2-.69a10.9 10.9 0 0 0 .66-2.37c.07-.4.13-.84.05-1.27-.04-.27-.06-.5-.31-.65a.7.7 0 0 0-.3-.07c-.17 0-.32.04-.47.1-.18.07-.36.2-.5.3-.13.1-.32.28-.45.35l-.36.05c.03-.08-.04-.25-.01-.34.28-1.37.78-6.02.76-8.29-.05-5.18 1.5-7.24-2.25-11.76a19.69 19.69 0 0 0-3.6-3.32c.65.16 1.15.24 1.88.6-1.6-1.3-3.02-2-4.22-2.62.58.1 1.32.28 1.92.37a18.24 18.24 0 0 0-9.06-2.12l-.64.07c-1.12 0-1.57.07-2.37.24-2.5-.12-6.01-.43-9.55 1.29.5-.03.93-.05 1.33-.05a15.7 15.7 0 0 0-5.32 3.82c.44-.24.84-.45 1.22-.63a17.54 17.54 0 0 0-4 5.74c-.88 2.27-.69 12.24-.34 13.97.32 1.6.01 2.64-.02 2.77-.02 0-.02-.02-.03-.02-.23-.11-.58-.23-.86-.11-.27.14-.37.4-.42.67-.1.45.01.87.1 1.27.14.67.31 1.32.47 1.83.05.19.13.37.2.59s.12.43.15.68l.07.77.04.68c.01.17.01.34.06.5.04.18.11.32.2.46l.02.05c.02.14.17.34.17.65 0 .24.09.52.06.8l-.1.8c-.03.19-.05.37-.05.53a2.36 2.36 0 0 0 .34 1.25c.1.16.05.17.23.26.15.08.29.13.44.15.2.02.4.05.55.1.22.07.38.12.55.25l.78.56c.02.09.08.15.1.25.1.31.25.7.41 1.06.26.56.61 1.19.95 1.77v.27c1.28 5.64.37 10.26-2.08 13.78 4.22 8.63 10.86 7.85 16.72 8.13 5.75.28 14.45-4.75 13.87-8.18-1.97-3.34-2.36-8.04-1.82-12.18.16-1.12.27-1.57.55-2.14.25-.56.41-.86.65-1.35.32-.67.5-1.36.6-1.93l.08-.3.28-.16c.18-.12.44-.27.74-.38.09-.04.18-.07.28-.13a1 1 0 0 0 .25-.28c.19-.27.3-.58.36-.9s.1-.55.09-.78v-.08c-.01-.3-.1-.68-.07-1.04s.11-.72.18-.97.12-.32.17-.45z"/>
  <path d="M45.48 54.96c-.25-.72-1.4-1.16-1.89-.44-.36.52.54.73.86.43.23-.22.67-.23 1.03 0zM47.67 54.92c.02-.47 1.01-1.43 1.6-.92.52.47-.14 1-.57.84-.38-.14-.57-.2-1.03.08zM44.96 59.26c.56.02 1.2.4 1.82.37s1.88-.82 2.53-.67 2.19 1.3 3.75.45c.57-.3.4.43.2.54-.77.44-2.94-.15-3.86-.27s-1.63.39-2.62.48-.87-.35-1.95-.36c-1.14 0-3.62.97-4.09.65s-.32-.78.38-.46c.86.4 2.48-.8 3.84-.73zM45.5 65.08c-.06.7-.73 1.91-2.37 2.06a6.94 6.94 0 0 1-3.32-1.01c-.62-.36-.7 0-.24.39 2.88 2.4 5.68 2.7 7.58 2.7 1.92 0 5.88-.6 8.02-3.05.66-.75.5-1.1-.37-.38-.9.75-2.1.81-2.93.91-1.18.14-2.94-.69-3-2.12-.04-.57-.32-1.2-.55-1.4-.71.29-1.65.4-2.24.08-.38.59-.51 1.05-.58 1.82zM38.37 46.58c.34 0 1.18-.28 1.38-.46.37-.31.08-.2-.07-.09-.31.24-1.15.36-1.36.34-.29-.02-.84 0-1.46-.19-.24-.07-.36-.13-.34-.09s.13.13.35.21c.6.22 1.24.28 1.5.28z"/>
  <path d="M35.27 45.5c-.01.02.06.1.1.07.47-.31 1-.52 1.58-.66a.8.8 0 0 0-.08.3c-.01.47.35.86.81.87s.86-.34.87-.81a.84.84 0 0 0-.13-.49c.46.04.9.12 1.35.26.5.15 1.01.5 1.5.66 0-.02-.06-.17-.23-.25a5.3 5.3 0 0 0-3.3-1.02c-1.06 0-1.75.55-2.47 1.07zm2.92-.69c.09-.02.18.07.2.2s-.01.26-.1.28-.17-.07-.2-.2.02-.26.1-.28zm.1.64c.06.02.09.1.06.17s-.1.15-.16.13-.05-.1-.02-.18.07-.14.13-.12z"/>
  <path d="M48.2 16.14c-1.12.01-2.08.12-2.88.28-2.67-.32-6.88-.18-10.26 1.74l1.33-.06c-1.58.74-3.4 2.01-5.37 4.15.45-.24.86-.46 1.25-.63a14.28 14.28 0 0 0-3.54 5.21c-.89 2.26-.6 12.24-.26 13.97.32 1.6.12 2.53.08 2.67l-.02-.02c-.23-.11-.54-.2-.82-.08-.27.14-.38.44-.43.71-.1.45.01.9.1 1.3.14.67.33 1.3.48 1.8l.18.62c.07.22.12.44.15.68l.08.74.05.71c.02.18.04.35.08.51.04.18.11.32.2.46l.03.03c.02.14.13.35.13.66 0 .24.08.51.05.79l-.1.81a4.9 4.9 0 0 0-.05.54l.03.35c.03.3.08.6.26.87.1.17.22.25.4.33.15.08.4.16.54.18.2.02.4.05.56.1.22.07.37.15.49.23-.11-.09-.28-.2-.49-.28a3.08 3.08 0 0 0-.53-.16c-.15-.03-.4-.1-.52-.17a.72.72 0 0 1-.32-.3 1.77 1.77 0 0 1-.22-.8c-.01-.19 0-.4 0-.56l.03-.3c.03-.25.05-.54.05-.82s-.08-.54-.1-.79c-.03-.28-.16-.48-.19-.63l.23.3a9.89 9.89 0 0 1 .69.94l-.15-.27c-.1-.17-.28-.44-.49-.72-.08-.11-.2-.22-.28-.35s-.14-.3-.18-.46-.04-.34-.05-.51l-.02-.69-.05-.76a3.46 3.46 0 0 0-.13-.71l-.28-1c-.12-.41-.26-.88-.38-1.4l-.08-.35c.08.19.17.28.3.43.38.4.64.03.64.03.3.23.83.98 1.73 2.97-.06-.13-.18-.18-.3-.25-.22-.12-.65.08-.69.4-.06.57.38 2.1.43 1.79.04-.23-.24-1-.07-1.35.08-.19.44-.23.71-.13.07.03.05-.17 0-.3v-.03c-.7-1.86-1.34-3.16-1.88-3.79-.32-.37-.66-.57-.82-.56-.06 0-.1.11-.12.2 0-.1 0-.18.02-.28.06-.25.14-.53.36-.63.2-.12.46-.05.68.05.95.44 1.25 1.1 1.68 1.9.22.39.67 1.66.93 2.7-.13-1.12-.45-2.07-.56-2.41l1.47.02c0 .3.03.58.1.87.1.46.32.92.68 1.24.5.43 1.11.61 1.7.77.97.26 1.97.38 2.96.38 1.31 0 2.63-.1 3.92-.3.46-.08.92-.17 1.37-.31.15-.05.31-.08.46-.15.1-.04.2-.1.28-.2.24-.3.35-.66.43-1 .1-.4.16-.78.23-1.17.05-.27.04-.58-.02-.84a3.62 3.62 0 0 1 2.13-.64c.48 0 1.27.18 2.01.56 0 .11.01.23.03.33.08.4.17.78.28 1.17.09.34.19.7.43 1 .1.1.2.16.28.2.15.07.3.1.46.15.45.13.91.21 1.37.28 1.3.2 2.61.28 3.92.26 1-.02 2-.14 2.95-.41.6-.17 1.23-.38 1.7-.81.37-.34.57-.79.67-1.25.06-.3.1-.6.1-.9l2.01-.42a9.63 9.63 0 0 0-.6 1.85c.25-.7.67-1.56.93-2a2.6 2.6 0 0 1 1-1c.15-.1.3-.2.48-.25.22-.08.48-.17.66-.05.12.06.2.18.26.33a.48.48 0 0 0-.2-.03c-.2 0-.46.09-.77.33-.63.5-1.18 1.61-2.04 4.33l-.02.12c-.01.08 0 .17.05.16.44-.16.78 0 .84.35.06.39-.42 1.06-.3 1.15s.27-.28.4-.59c.15-.34.27-.66.25-.94-.03-.67-.54-1.01-.96-.6.98-2.5 1.41-3.05 1.73-3.27 0 0 .12.3.58 0 .2-.13.42-.29.51-.5.02.34-.04.68-.1 1.01a13.07 13.07 0 0 1-.66 2.34 13.41 13.41 0 0 0-.3 1.5c-.04.25-.05.48-.08.72l-.1.5c-.05.16-.13.3-.23.41l-.33.36c-.14.12-.26.22-.36.33l-.26.28c.07-.08.18-.16.28-.25.11-.1.22-.22.36-.33.11-.1.24-.21.36-.34s.22-.25.28-.43c.05-.16.07-.33.1-.5l.13-.72c.04-.25.07-.52.12-.76s.12-.47.2-.69a10.9 10.9 0 0 0 .66-2.4c.08-.4.14-.83.06-1.26-.04-.27-.13-.57-.38-.72a.7.7 0 0 0-.3-.07c-.17 0-.32.07-.47.13-.18.07-.36.17-.5.27l-.34.28-.38.06.08-.28c.28-1.37 1.04-5.93 1.02-8.2-.05-5.18 1.2-7.33-2.55-11.85a16.24 16.24 0 0 0-3.28-3c.65.16 1.33.42 2.06.78a24.74 24.74 0 0 0-4.17-2.8l1.75.28a21.62 21.62 0 0 0-9.72-2.47zm6 9.5c1.35 0 2.46.29 3.13 1.17 1.94 2.56 2.49 4.44 2.72 6.61s.19 3.76.94 4.96c.7 1.12.86 4.49.74 5.42l-1.5.16a1.33 1.33 0 0 0-.26-.34 3.6 3.6 0 0 0-1.14-.66 8.34 8.34 0 0 0-2.14-.48 13.09 13.09 0 0 0-3.3-.05 25.7 25.7 0 0 0-3.34.56c-.2.05-.4.13-.6.2-.15.05-.28.11-.42.2a1.8 1.8 0 0 0-.68.95l-.08.3a4.6 4.6 0 0 0-4.27.1 1.9 1.9 0 0 0-.64-.78c-.14-.1-.3-.13-.43-.18a17.03 17.03 0 0 0-3.94-.71c-.49-.05-.97-.07-1.46-.06-.61.02-1.24.05-1.85.13-.72.1-1.44.25-2.12.54-.4.16-.82.35-1.14.66-.2.2-.35.45-.4.74l-.9-.06c-.2-.58-.8-2.38-.66-3.38.14-.98.83-1 .92-2.42s-.26-6.65.17-8.11 2.36-4.45 4.07-4.97c2.96-.9 5.38.84 9.7.67 2.83-.12 6.3-1.18 8.88-1.17zm-.08 16.97c.24-.02.48 0 .72 0 .6 0 1.22.03 1.83.1.7.08 1.4.22 2.06.48.39.16.78.34 1.07.61.22.22.37.51.38.82 0 .41-.02.82-.1 1.22-.1.42-.28.84-.59 1.12-.42.4-1 .59-1.58.76-.93.27-1.92.37-2.9.38a23.4 23.4 0 0 1-3.86-.23 10.36 10.36 0 0 1-1.79-.43c-.08-.04-.16-.08-.2-.13-.2-.23-.29-.56-.38-.89l-.03-.15c.04-.09.02-.24 0-.43.14-.07.22-.23.18-.38s-.17-.28-.33-.28c-.03-.1-.06-.2-.1-.26V44.8a1.59 1.59 0 0 1 1.04-1.37c.2-.08.39-.13.59-.19a25.81 25.81 0 0 1 3.28-.56l.71-.07zm-16.59.63h.36c.36 0 .7.05 1.07.08a25.69 25.69 0 0 1 3.3.5l.6.19a1.57 1.57 0 0 1 .96.99c.05.16.1.33.1.5-.04.07-.1.16-.13.26-.15 0-.3.12-.33.28-.03.16.07.29.2.36-.01.2 0 .37.03.46l-.05.12c-.09.34-.18.68-.38.92a.48.48 0 0 1-.18.13l-.43.15c-.44.13-.87.2-1.33.28-1.27.21-2.6.3-3.89.3-.98 0-1.94-.1-2.87-.35a4 4 0 0 1-1.63-.74 2.03 2.03 0 0 1-.59-1.1c-.09-.39-.1-.82-.1-1.24 0-.3.13-.6.36-.81.28-.28.65-.45 1.04-.62a8.09 8.09 0 0 1 2.06-.5c.6-.08 1.22-.14 1.83-.16z"/>
  <path d="M54.99 44.22a7.79 7.79 0 0 0-3.39.82c-.17.07-.26.24-.25.25 1.05-.28 2.12-.63 3.2-.7a.9.9 0 0 0-.15.47c-.01.47.35.86.82.87s.85-.35.86-.81a.83.83 0 0 0-.08-.39c.48.15.91.4 1.28.77.04.03.1-.06.1-.08a3.14 3.14 0 0 0-2.4-1.2zm.79.51c.08 0 .16.07.17.2s-.04.28-.12.29-.17-.1-.18-.23.04-.25.13-.26zm.05.61c.04.03.04.13 0 .2s-.1.1-.16.08-.04-.1 0-.17.1-.13.16-.1zM47.04 61.9a7.1 7.1 0 0 1-1.84-.14l-.56-.12c-.14-.03-.21-.04-.22-.02s.06.07.19.14.33.17.57.26.53.17.86.22.66.07 1.01.05h.05a4.8 4.8 0 0 0 2.54-1l-.27.08-.56.18a7.6 7.6 0 0 1-1.74.35h-.03zM42.18 54.76c.07.13.19.28.34.4a1.85 1.85 0 0 0 .67.25c.2.03.34.03.34.03s-.13-.02-.32-.08-.42-.17-.6-.33a1.13 1.13 0 0 1-.33-.6c-.03-.1-.04-.23-.03-.37s.04-.27.08-.4a2.9 2.9 0 0 1 .44-.9l-.2.24a2.7 2.7 0 0 0-.36.61c-.06.13-.1.28-.12.43s-.03.3 0 .43c.01.1.05.2.09.29zM50.9 53.34a1.96 1.96 0 0 0-.54-.8c-.12-.1-.24-.18-.32-.23l-.15-.09.14.12c.07.07.18.17.28.3s.2.28.27.43a2.39 2.39 0 0 1 .2.68 1.17 1.17 0 0 1-.14.72c-.1.2-.27.36-.4.46s-.24.14-.24.14l.25-.11c.15-.08.35-.21.5-.42a1.26 1.26 0 0 0 .22-.8c0-.15-.04-.29-.07-.4zM41.49 41.07c1.05.5.77 1.4-.2 1.3-1-.1-3.64-.93-5.24-.82-1.34.09-2.37.8-3.37 1.13.94-1.04 1.68-1.55 3.15-1.87s4.87-.12 5.66.26zM50.4 41.3c-.68.36-.42 1.14.55 1.03 2-.23 3.42-.8 4.93-.75s2.53.33 3.24.61 1.15-.16.18-.57-2.18-.77-3.55-.85c-1.9-.11-3.86-.27-5.34.53zM63.65 52.83v-.09a5.27 5.27 0 0 1 .18-2l.13-.4s-.08.14-.17.39-.2.59-.27.96-.07.74-.07 1.06V53c.01.18.02.39-.01.6-.04.29-.14.59-.3.85a.83.83 0 0 1-.2.25l-.26.14c-.3.14-.55.3-.71.43l-.26.22.27-.2c.18-.1.43-.25.73-.37a.94.94 0 0 0 .54-.4c.19-.26.32-.58.37-.9s.04-.57.03-.8zM31.7 56.09c-.5-1.92-.48-3.93-.78-5.89-.03-.24-.15-1.04-.07-.42.23 1.9.18 3.81.5 5.7a13.7 13.7 0 0 0 2.23 4.96 18.88 18.88 0 0 0 3 3.37 18.41 18.41 0 0 1-4.02-5.48 11.6 11.6 0 0 1-.87-2.24zM61.66 55.78a18.86 18.86 0 0 0 .18-4.88 26.91 26.91 0 0 0-.16-1.25 29.86 29.86 0 0 1 .11 2.86c0 .6-.05 1.21-.11 1.8-.08.7-.19 1.35-.32 1.88-.1.45-.26.94-.49 1.43-.45.97-.92 2.06-1.44 3.02a17.29 17.29 0 0 1-2.18 3.11s.3-.3.74-.84a17.03 17.03 0 0 0 2.32-3.7l.73-1.51c.32-.67.5-1.35.62-1.92zM32.62 71.6c.22 3.46 1.2 5.6 5.82 7.44 6.9 2.75 16.27 1.47 19.14-1.03s3.7-3.58 2.84-6.23c2 .49 4.21.82 6.2.84 1.39.02 2.18-.44 3.01-.73 1.42.61 2.9.4 2.72 3.2-.15 2.23 4.67 3.7 4.04 6.78 3.09.2 6.37-.34 8.4 3.83 1.99.81 3.83 3.15 5.12 4.31H.31c1.18-1.42 7.12-6.16 9.53-6.85 2.13-.61 3.7.29 4.76-1.36s-.84-2.51 3.5-5.43 9.85-4.7 13.9-4.78z"/>
  <path d="m30.98 73.41.64.41c2.35-3.88 2.6-8.67 1.7-13 .65 4.38.1 9.08-2.34 12.6z"/>
  <path fill="#106eb0" d="M35.15 82.08c-6.7-2.95-10.51-8.81-13.51-7.46.38-2.27 1.53-2.85 3.82-3.18 1.64-.23.86-1.26 2.33-1.51 1.62-.28 3 .43 3.56 1.78 0 0-1.25 1.58-.9 3.72.26 1.54 1.22 4.24 4.7 6.65z"/>
  <path d="m60.86 73.63.89-.43c-1.86-3.13-2.57-7.77-2.03-11.87-.79 4.06-.5 8.4 1.14 12.3z"/>
  <path fill="#106eb0" d="M59.2 81.3c6-3.51 6.61-6.67 10.45-9.41-1.66-1.63-2.75-.71-3.82-.77-1.06-.05-1.81-.42-2.77-.29-.97.14-1.73.25-1.93 1.1 1.63 3.37 1.39 5.38-1.92 9.38z"/>
  <path d="M54.48 46.44a3.49 3.49 0 0 1-1.34-.55c-.35-.34-.07-.22.08-.1.3.27 1.11.44 1.33.44.28 0 .83.06 1.47-.08.24-.05.36-.1.34-.07-.03.04-.13.12-.36.19-.61.17-1.26.19-1.52.17z"/>
</svg>